<svg width="60" height="60" viewBox="0 0 60 60" fill="none" xmlns="http://www.w3.org/2000/svg">
<g id="Group 35675">
<g id="Ellipse 2948" filter="url(#filter0_dd_2_2354)">
<circle cx="30.1735" cy="30.1493" r="18.1484" fill="#040924"/>
</g>
<g id="Group 35673">
<path id="Vector" d="M21.2213 19.1725L19.5793 20.8145L21.2213 22.4565L22.8633 20.8145L21.2213 19.1725Z" fill="white"/>
<g id="Group 35600">
<path id="Vector_2" d="M42.0862 37.2353L27.7891 22.9381C27.4764 22.6395 27.0606 22.4728 26.6282 22.4728C26.1958 22.4728 25.78 22.6395 25.4672 22.9381L23.3441 25.0612C23.0367 25.3694 22.864 25.7869 22.864 26.2222C22.864 26.6575 23.0367 27.075 23.3441 27.3831L37.6404 41.6804C37.9486 41.9878 38.3661 42.1604 38.8013 42.1604C39.2366 42.1604 39.6541 41.9878 39.9623 41.6804L42.0862 39.5568C42.2387 39.4044 42.3597 39.2234 42.4423 39.0242C42.5248 38.825 42.5673 38.6115 42.5673 38.3959C42.5673 38.1803 42.5248 37.9667 42.4423 37.7675C42.3597 37.5683 42.2387 37.3878 42.0862 37.2353ZM24.5051 26.2222L26.6281 24.0991L30.7332 28.2042L28.6096 30.328L24.5045 26.223L24.5051 26.2222Z" fill="white"/>
<path id="Vector_3" d="M21.2213 29.0247L19.5793 30.6668L21.2213 32.3088L22.8633 30.6668L21.2213 29.0247Z" fill="white"/>
<path id="Vector_4" d="M31.0734 19.1725L29.4314 20.8145L31.0734 22.4565L32.7154 20.8145L31.0734 19.1725Z" fill="white"/>
</g>
</g>
</g>
<defs>
<filter id="filter0_dd_2_2354" x="0.424703" y="0.400441" width="59.4976" height="59.4976" filterUnits="userSpaceOnUse" color-interpolation-filters="sRGB">
<feFlood flood-opacity="0" result="BackgroundImageFix"/>
<feColorMatrix in="SourceAlpha" type="matrix" values="0 0 0 0 0 0 0 0 0 0 0 0 0 0 0 0 0 0 127 0" result="hardAlpha"/>
<feOffset dx="-5.80022" dy="-5.80022"/>
<feGaussianBlur stdDeviation="2.90011"/>
<feComposite in2="hardAlpha" operator="out"/>
<feColorMatrix type="matrix" values="0 0 0 0 0 0 0 0 0 0 0 0 0 0 0 0 0 0 0.07 0"/>
<feBlend mode="normal" in2="BackgroundImageFix" result="effect1_dropShadow_2_2354"/>
<feColorMatrix in="SourceAlpha" type="matrix" values="0 0 0 0 0 0 0 0 0 0 0 0 0 0 0 0 0 0 127 0" result="hardAlpha"/>
<feOffset dx="5.80022" dy="5.80022"/>
<feGaussianBlur stdDeviation="2.90011"/>
<feComposite in2="hardAlpha" operator="out"/>
<feColorMatrix type="matrix" values="0 0 0 0 0 0 0 0 0 0 0 0 0 0 0 0 0 0 0.07 0"/>
<feBlend mode="normal" in2="effect1_dropShadow_2_2354" result="effect2_dropShadow_2_2354"/>
<feBlend mode="normal" in="SourceGraphic" in2="effect2_dropShadow_2_2354" result="shape"/>
</filter>
</defs>
</svg>
