<svg width="44" height="47" viewBox="0 0 44 47" fill="none" xmlns="http://www.w3.org/2000/svg">
<g id="Group 33773">
<path id="Ellipse 143" d="M43.75 23.4122C43.75 36.0599 34.0005 46.2913 22 46.2913C9.99945 46.2913 0.25 36.0599 0.25 23.4122C0.25 10.7646 9.99945 0.533203 22 0.533203C34.0005 0.533203 43.75 10.7646 43.75 23.4122Z" fill="white" stroke="#D6D6D6" stroke-width="0.5"/>
<g id="Group 33740">
<g id="Group 33738">
<path id="search" d="M32.7107 36.4599L26.854 30.5342L26.6918 30.3701L26.5153 30.5186C25.7287 31.1801 24.8227 31.7052 23.7951 32.0931C22.7724 32.479 21.6827 32.6727 20.5238 32.6727C17.6514 32.6727 15.2275 31.6301 13.2371 29.5376C11.2462 27.4445 10.25 24.8902 10.25 21.8588C10.25 18.8275 11.2462 16.2731 13.2371 14.18C15.2275 12.0875 17.6514 11.0449 20.5238 11.0449C23.3962 11.0449 25.8201 12.0875 27.8105 14.18C29.8014 16.2731 30.7976 18.8275 30.7976 21.8588C30.7976 23.0814 30.6127 24.2313 30.2444 25.31C29.8745 26.3933 29.3738 27.3477 28.7439 28.1755L28.6125 28.3483L28.765 28.5027L34.6326 34.4393L32.7107 36.4599ZM20.5238 29.7684C22.6173 29.7684 24.4026 28.9948 25.8657 27.4567C27.3282 25.919 28.0595 24.0481 28.0595 21.8588C28.0595 19.6695 27.3282 17.7986 25.8657 16.2609C24.4026 14.7228 22.6173 13.9492 20.5238 13.9492C18.4303 13.9492 16.645 14.7228 15.182 16.2609C13.7194 17.7986 12.9881 19.6695 12.9881 21.8588C12.9881 24.0481 13.7194 25.919 15.182 27.4567C16.645 28.9948 18.4303 29.7684 20.5238 29.7684Z" fill="#1C1B1F" stroke="#D6D6D6" stroke-width="0.5"/>
</g>
</g>
</g>
</svg>
